<svg width="190" height="198" xmlns="http://www.w3.org/2000/svg">
<path fill="#D10" d="m189 130-27-31 27-31-40-8 4-41-37 16L95 0 74 35 37 19l4 41-40 8 27 31-27 31 40 8-4 41 37-16 21 35 21-35 37 16-4-41"/>
<path fill="#FFF" d="M118 68s-9 6-23 6-22-6-22-6 2 10-1 23c-3 8-7 14-13 19 0 0 12 2 21 8 9 7 15 19 15 19s5-12 14-18c9-7 22-8 22-8s-9-11-13-20c-4-10 0-23 0-23Zm-13 44c-6 4-10 11-10 11l-10-11-13-5s5-7 7-14c2-4 2-9 2-14 0 0 7 3 14 3 6 0 14-3 14-3s-2 8 1 15c2 6 8 13 8 13l-13 5Zm28-27c-2-7 5-45 5-45s-26 18-44 18-42-18-42-18 8 27 3 45c-4 17-29 37-29 37s32 1 44 10c13 8 25 40 25 40s16-35 23-40 46-11 46-11-28-28-31-36Zm-19 41c-13 8-19 28-19 28s-10-22-20-29-32-9-32-9 17-14 21-28c4-13-1-33-1-33s18 11 31 11c14 0 33-11 33-11s-6 21-1 33c4 13 21 28 21 28s-20 1-33 10"/>
</svg>